{
.appVersion = "1141";
DisplayStrings = (
R,
S,
T,
I,
H
);
copyright = "Copyright 2018 The Woodbine Project Authors (https://github.com/eliheuer/woodbine), with Reserved Font Name \"Woodbine\".";
customParameters = (
{
name = trademark;
value = foobar;
},
{
name = license;
value = "This Font Software is licensed under the SIL Open Font License, Version 1.1. This license is available with a FAQ at: http://scripts.sil.org/OFL";
},
{
name = licenseURL;
value = "http://scripts.sil.org/OFL";
},
{
name = fsType;
value = (
);
},
{
name = Axes;
value = (
{
Name = Weight;
Tag = wght;
}
);
}
);
date = "2018-05-29 23:53:52 +0000";
designer = "Eli Heuer";
designerURL = "https://elih.blog";
disablesNiceNames = 1;
familyName = Woodbine;
fontMaster = (
{
ascender = 750;
capHeight = 700;
descender = -250;
id = "943837FD-2EA4-424D-A655-FFF98A08080F";
visible = 1;
xHeight = 500;
},
{
ascender = 800;
capHeight = 700;
custom = Black;
descender = -200;
iconName = Bold;
id = "4B9CF309-7C6C-4E8F-98F9-807C6FC76924";
weightValue = 200;
xHeight = 500;
}
);
glyphs = (
{
glyphname = A;
lastChange = "2018-06-12 03:53:05 +0000";
layers = (
{
layerId = "943837FD-2EA4-424D-A655-FFF98A08080F";
paths = (
{
closed = 1;
nodes = (
"156 295 LINE",
"393 295 LINE",
"419 229 LINE",
"132 229 LINE"
);
},
{
closed = 1;
nodes = (
"301 641 LINE",
"92 0 LINE",
"10 0 LINE",
"243 641 LINE"
);
},
{
closed = 1;
nodes = (
"316 725 LINE",
"600 19 LINE",
"484 -26 LINE",
"207 689 LINE"
);
}
);
width = 600;
},
{
layerId = "4B9CF309-7C6C-4E8F-98F9-807C6FC76924";
width = 600;
}
);
unicode = 0041;
},
{
glyphname = B;
lastChange = "2018-06-12 03:59:44 +0000";
layers = (
{
layerId = "943837FD-2EA4-424D-A655-FFF98A08080F";
paths = (
{
closed = 1;
nodes = (
"366 701 LINE SMOOTH",
"486 701 OFFCURVE",
"527 625 OFFCURVE",
"527 557 CURVE SMOOTH",
"527 440 OFFCURVE",
"440 382 OFFCURVE",
"349 346 CURVE",
"327 372 LINE",
"400 417 OFFCURVE",
"426 474 OFFCURVE",
"423 528 CURVE SMOOTH",
"420 590 OFFCURVE",
"358 652 OFFCURVE",
"275 652 CURVE SMOOTH",
"248 652 OFFCURVE",
"224 645 OFFCURVE",
"207 632 CURVE",
"211 3 LINE",
"100 5 LINE",
"98 700 LINE"
);
},
{
closed = 1;
nodes = (
"180 340 LINE",
"264 392 LINE",
"391 392 OFFCURVE",
"541 317 OFFCURVE",
"539 206 CURVE SMOOTH",
"536 70 OFFCURVE",
"439 -17 OFFCURVE",
"280 -17 CURVE SMOOTH",
"208 -17 OFFCURVE",
"141 -8 OFFCURVE",
"100 5 CURVE",
"191 70 LINE",
"226 45 OFFCURVE",
"262 31 OFFCURVE",
"320 33 CURVE SMOOTH",
"393 35 OFFCURVE",
"430 126 OFFCURVE",
"429 177 CURVE SMOOTH",
"426 292 OFFCURVE",
"282 329 OFFCURVE",
"181 317 CURVE"
);
}
);
width = 600;
},
{
layerId = "4B9CF309-7C6C-4E8F-98F9-807C6FC76924";
width = 600;
}
);
unicode = 0042;
},
{
glyphname = C;
lastChange = "2018-06-12 04:11:42 +0000";
layers = (
{
layerId = "943837FD-2EA4-424D-A655-FFF98A08080F";
paths = (
{
closed = 1;
nodes = (
"489 585 LINE",
"448 614 OFFCURVE",
"390 635 OFFCURVE",
"327 635 CURVE SMOOTH",
"158 635 OFFCURVE",
"109 500 OFFCURVE",
"109 380 CURVE SMOOTH",
"109 151 OFFCURVE",
"300 77 OFFCURVE",
"395 71 CURVE SMOOTH",
"462 67 OFFCURVE",
"514 95 OFFCURVE",
"559 130 CURVE",
"581 103 LINE",
"382 -23 LINE",
"141 -23 OFFCURVE",
"23 80 OFFCURVE",
"24 319 CURVE SMOOTH",
"25 601 OFFCURVE",
"285 719 OFFCURVE",
"401 719 CURVE SMOOTH",
"466 719 OFFCURVE",
"531 693 OFFCURVE",
"561 667 CURVE"
);
}
);
width = 600;
},
{
layerId = "4B9CF309-7C6C-4E8F-98F9-807C6FC76924";
width = 600;
}
);
unicode = 0043;
},
{
glyphname = D;
lastChange = "2018-06-12 04:15:43 +0000";
layers = (
{
layerId = "943837FD-2EA4-424D-A655-FFF98A08080F";
paths = (
{
closed = 1;
nodes = (
"138 32 LINE",
"138 644 LINE",
"363 651 OFFCURVE",
"505 553 OFFCURVE",
"505 294 CURVE SMOOTH",
"505 225 OFFCURVE",
"500 66 OFFCURVE",
"261 60 CURVE SMOOTH",
"201 58 OFFCURVE",
"163 66 OFFCURVE",
"121 97 CURVE",
"53 30 LINE",
"76 9 OFFCURVE",
"154 -12 OFFCURVE",
"191 -12 CURVE SMOOTH",
"503 -8 OFFCURVE",
"596 228 OFFCURVE",
"596 397 CURVE SMOOTH",
"596 610 OFFCURVE",
"461 698 OFFCURVE",
"251 700 CURVE SMOOTH",
"26 702 LINE",
"28 2 LINE"
);
}
);
width = 600;
},
{
layerId = "4B9CF309-7C6C-4E8F-98F9-807C6FC76924";
width = 600;
}
);
unicode = 0044;
},
{
glyphname = E;
lastChange = "2018-06-12 04:26:32 +0000";
layers = (
{
layerId = "943837FD-2EA4-424D-A655-FFF98A08080F";
paths = (
{
closed = 1;
nodes = (
"505 702 LINE",
"469 634 LINE",
"260 634 LINE",
"256 389 LINE",
"500 390 LINE",
"469 322 LINE",
"257 322 LINE",
"260 70 LINE",
"513 71 LINE",
"476 1 LINE",
"147 1 LINE",
"147 700 LINE"
);
}
);
width = 600;
},
{
layerId = "4B9CF309-7C6C-4E8F-98F9-807C6FC76924";
width = 600;
}
);
unicode = 0045;
},
{
glyphname = F;
lastChange = "2018-06-12 21:47:41 +0000";
layers = (
{
layerId = "943837FD-2EA4-424D-A655-FFF98A08080F";
paths = (
{
closed = 1;
nodes = (
"505 702 LINE",
"469 634 LINE",
"260 634 LINE",
"256 389 LINE",
"500 390 LINE",
"469 322 LINE",
"257 322 LINE",
"260 -1 LINE",
"147 1 LINE",
"147 700 LINE"
);
}
);
width = 600;
},
{
layerId = "4B9CF309-7C6C-4E8F-98F9-807C6FC76924";
width = 600;
}
);
unicode = 0046;
},
{
glyphname = G;
lastChange = "2018-06-12 22:04:15 +0000";
layers = (
{
layerId = "943837FD-2EA4-424D-A655-FFF98A08080F";
paths = (
{
closed = 1;
nodes = (
"25 601 OFFCURVE",
"285 719 OFFCURVE",
"401 719 CURVE SMOOTH",
"466 719 OFFCURVE",
"531 693 OFFCURVE",
"561 667 CURVE",
"489 585 LINE",
"448 614 OFFCURVE",
"390 635 OFFCURVE",
"327 635 CURVE SMOOTH",
"158 635 OFFCURVE",
"109 500 OFFCURVE",
"109 380 CURVE SMOOTH",
"109 151 OFFCURVE",
"300 77 OFFCURVE",
"395 71 CURVE SMOOTH",
"420 69 OFFCURVE",
"444 73 OFFCURVE",
"465 79 CURVE",
"467 316 LINE",
"316 318 LINE",
"367 383 LINE",
"581 386 LINE",
"581 103 LINE",
"382 -23 LINE",
"141 -23 OFFCURVE",
"23 80 OFFCURVE",
"24 319 CURVE SMOOTH"
);
}
);
width = 600;
},
{
layerId = "4B9CF309-7C6C-4E8F-98F9-807C6FC76924";
width = 600;
}
);
unicode = 0047;
},
{
glyphname = H;
lastChange = "2018-06-13 00:02:26 +0000";
layers = (
{
layerId = "943837FD-2EA4-424D-A655-FFF98A08080F";
paths = (
{
closed = 1;
nodes = (
"428 0 LINE",
"428 700 LINE",
"556 700 LINE",
"556 0 LINE"
);
},
{
closed = 1;
nodes = (
"29 0 LINE",
"29 700 LINE",
"157 700 LINE",
"157 0 LINE"
);
},
{
closed = 1;
nodes = (
"473 384 LINE",
"393 320 LINE",
"125 320 LINE",
"195 384 LINE"
);
}
);
width = 600;
},
{
layerId = "4B9CF309-7C6C-4E8F-98F9-807C6FC76924";
width = 600;
}
);
unicode = 0048;
},
{
glyphname = I;
lastChange = "2018-06-12 22:22:00 +0000";
layers = (
{
layerId = "943837FD-2EA4-424D-A655-FFF98A08080F";
paths = (
{
closed = 1;
nodes = (
"30 0 LINE",
"30 700 LINE",
"158 700 LINE",
"158 0 LINE"
);
}
);
width = 188;
},
{
layerId = "4B9CF309-7C6C-4E8F-98F9-807C6FC76924";
width = 600;
}
);
unicode = 0049;
},
{
glyphname = J;
lastChange = "2018-06-12 22:49:59 +0000";
layers = (
{
layerId = "943837FD-2EA4-424D-A655-FFF98A08080F";
paths = (
{
closed = 1;
nodes = (
"73 11 OFFCURVE",
"116 -25 OFFCURVE",
"148 -25 CURVE SMOOTH",
"194 -25 OFFCURVE",
"378 97 OFFCURVE",
"378 171 CURVE SMOOTH",
"378 698 LINE",
"252 697 LINE",
"256 97 LINE SMOOTH",
"256 62 OFFCURVE",
"239 57 OFFCURVE",
"207 57 CURVE SMOOTH",
"192 57 OFFCURVE",
"173 69 OFFCURVE",
"129 107 CURVE",
"56 40 LINE"
);
}
);
width = 600;
},
{
layerId = "4B9CF309-7C6C-4E8F-98F9-807C6FC76924";
width = 600;
}
);
unicode = 004A;
},
{
glyphname = K;
lastChange = "2018-06-13 00:01:31 +0000";
layers = (
{
layerId = "943837FD-2EA4-424D-A655-FFF98A08080F";
paths = (
{
closed = 1;
nodes = (
"79 0 LINE",
"79 700 LINE",
"207 700 LINE",
"207 0 LINE"
);
},
{
closed = 1;
nodes = (
"183 352 LINE",
"458 700 LINE",
"548 700 LINE",
"293 388 LINE",
"556 39 LINE",
"456 -24 LINE"
);
}
);
width = 600;
},
{
layerId = "4B9CF309-7C6C-4E8F-98F9-807C6FC76924";
width = 600;
}
);
unicode = 004B;
},
{
glyphname = L;
lastChange = "2018-06-12 22:31:20 +0000";
layers = (
{
layerId = "943837FD-2EA4-424D-A655-FFF98A08080F";
paths = (
{
closed = 1;
nodes = (
"275 701 LINE",
"275 65 LINE",
"513 66 LINE",
"476 1 LINE",
"147 1 LINE",
"147 700 LINE"
);
}
);
width = 600;
},
{
layerId = "4B9CF309-7C6C-4E8F-98F9-807C6FC76924";
width = 600;
}
);
unicode = 004C;
},
{
glyphname = M;
lastChange = "2018-06-13 00:52:05 +0000";
layers = (
{
layerId = "943837FD-2EA4-424D-A655-FFF98A08080F";
paths = (
{
closed = 1;
nodes = (
"144 700 LINE",
"315 153 LINE",
"526 700 LINE",
"654 700 LINE",
"684 0 LINE",
"556 0 LINE",
"530 549 LINE",
"315 0 LINE",
"246 0 LINE",
"59 572 LINE",
"26 0 LINE",
"-56 0 LINE",
"16 700 LINE"
);
}
);
width = 600;
},
{
layerId = "4B9CF309-7C6C-4E8F-98F9-807C6FC76924";
width = 600;
}
);
unicode = 004D;
},
{
glyphname = N;
lastChange = "2018-06-13 01:05:59 +0000";
layers = (
{
layerId = "943837FD-2EA4-424D-A655-FFF98A08080F";
paths = (
{
closed = 1;
nodes = (
"552 705 LINE",
"489 703 LINE",
"478 145 LINE",
"506 157 LINE",
"116 726 LINE",
"10 677 LINE",
"491 -2 LINE",
"550 11 LINE"
);
},
{
closed = 1;
nodes = (
"114 643 LINE",
"61 642 LINE",
"56 1 LINE",
"128 5 LINE"
);
}
);
width = 600;
},
{
layerId = "4B9CF309-7C6C-4E8F-98F9-807C6FC76924";
width = 600;
}
);
unicode = 004E;
},
{
glyphname = O;
lastChange = "2018-06-13 01:28:36 +0000";
layers = (
{
layerId = "943837FD-2EA4-424D-A655-FFF98A08080F";
paths = (
{
closed = 1;
nodes = (
"124 -16 OFFCURVE",
"-23 77 OFFCURVE",
"-24 298 CURVE SMOOTH",
"-25 559 OFFCURVE",
"194 721 OFFCURVE",
"329 721 CURVE SMOOTH",
"543 721 OFFCURVE",
"628 506 OFFCURVE",
"623 369 CURVE SMOOTH",
"616 192 OFFCURVE",
"479 -16 OFFCURVE",
"262 -16 CURVE SMOOTH"
);
},
{
closed = 1;
nodes = (
"451 71 OFFCURVE",
"522 116 OFFCURVE",
"523 312 CURVE SMOOTH",
"524 508 OFFCURVE",
"389 629 OFFCURVE",
"257 629 CURVE SMOOTH",
"107 629 OFFCURVE",
"56 478 OFFCURVE",
"57 375 CURVE SMOOTH",
"58 242 OFFCURVE",
"165 71 OFFCURVE",
"328 71 CURVE SMOOTH"
);
}
);
width = 600;
},
{
layerId = "4B9CF309-7C6C-4E8F-98F9-807C6FC76924";
width = 600;
}
);
unicode = 004F;
},
{
glyphname = P;
lastChange = "2018-06-13 01:14:27 +0000";
layers = (
{
layerId = "943837FD-2EA4-424D-A655-FFF98A08080F";
paths = (
{
closed = 1;
nodes = (
"100 700 LINE",
"278 700 LINE SMOOTH",
"359 700 OFFCURVE",
"536 708 OFFCURVE",
"539 527 CURVE SMOOTH",
"542 346 OFFCURVE",
"376 269 OFFCURVE",
"296 270 CURVE SMOOTH",
"216 271 OFFCURVE",
"176 294 OFFCURVE",
"158 302 CURVE",
"158 348 LINE",
"208 334 OFFCURVE",
"236 335 OFFCURVE",
"303 334 CURVE SMOOTH",
"380 333 OFFCURVE",
"425 369 OFFCURVE",
"427 462 CURVE SMOOTH",
"430 587 OFFCURVE",
"354 644 OFFCURVE",
"228 645 CURVE",
"228 0 LINE",
"100 0 LINE"
);
}
);
width = 600;
},
{
layerId = "4B9CF309-7C6C-4E8F-98F9-807C6FC76924";
width = 600;
}
);
unicode = 0050;
},
{
glyphname = Q;
lastChange = "2018-06-13 01:45:07 +0000";
layers = (
{
layerId = "943837FD-2EA4-424D-A655-FFF98A08080F";
paths = (
{
closed = 1;
nodes = (
"124 -16 OFFCURVE",
"-23 77 OFFCURVE",
"-24 298 CURVE SMOOTH",
"-25 559 OFFCURVE",
"194 721 OFFCURVE",
"329 721 CURVE SMOOTH",
"543 721 OFFCURVE",
"628 506 OFFCURVE",
"623 369 CURVE SMOOTH",
"616 192 OFFCURVE",
"479 -16 OFFCURVE",
"262 -16 CURVE SMOOTH"
);
},
{
closed = 1;
nodes = (
"451 71 OFFCURVE",
"522 116 OFFCURVE",
"523 312 CURVE SMOOTH",
"524 508 OFFCURVE",
"389 629 OFFCURVE",
"257 629 CURVE SMOOTH",
"107 629 OFFCURVE",
"56 478 OFFCURVE",
"57 375 CURVE SMOOTH",
"58 242 OFFCURVE",
"165 71 OFFCURVE",
"328 71 CURVE SMOOTH"
);
},
{
closed = 1;
nodes = (
"171 176 OFFCURVE",
"246 225 OFFCURVE",
"327 225 CURVE SMOOTH",
"387 225 OFFCURVE",
"522 -47 OFFCURVE",
"540 -47 CURVE SMOOTH",
"558 -47 OFFCURVE",
"563 -33 OFFCURVE",
"575 -26 CURVE",
"596 -46 LINE",
"582 -72 OFFCURVE",
"508 -138 OFFCURVE",
"482 -138 CURVE SMOOTH",
"436 -138 OFFCURVE",
"298 152 OFFCURVE",
"246 154 CURVE SMOOTH",
"216 155 OFFCURVE",
"190 132 OFFCURVE",
"158 104 CURVE",
"133 132 LINE"
);
}
);
width = 600;
},
{
layerId = "4B9CF309-7C6C-4E8F-98F9-807C6FC76924";
width = 600;
}
);
unicode = 0051;
},
{
glyphname = R;
lastChange = "2018-06-13 02:08:16 +0000";
layers = (
{
layerId = "943837FD-2EA4-424D-A655-FFF98A08080F";
paths = (
{
closed = 1;
nodes = (
"100 700 LINE",
"288 700 LINE SMOOTH",
"369 700 OFFCURVE",
"527 691 OFFCURVE",
"529 536 CURVE SMOOTH",
"531 414 OFFCURVE",
"409 337 OFFCURVE",
"318 337 CURVE",
"319 355 LINE",
"568 38 LINE",
"469 -25 LINE",
"212 330 LINE",
"296 383 LINE",
"309 372 OFFCURVE",
"323 368 OFFCURVE",
"348 368 CURVE SMOOTH",
"385 368 OFFCURVE",
"419 441 OFFCURVE",
"418 500 CURVE SMOOTH",
"416 612 OFFCURVE",
"354 644 OFFCURVE",
"228 645 CURVE",
"228 0 LINE",
"100 0 LINE"
);
}
);
width = 600;
},
{
layerId = "4B9CF309-7C6C-4E8F-98F9-807C6FC76924";
width = 600;
}
);
unicode = 0052;
},
{
glyphname = S;
lastChange = "2018-06-13 02:42:31 +0000";
layers = (
{
layerId = "943837FD-2EA4-424D-A655-FFF98A08080F";
paths = (
{
closed = 1;
nodes = (
"198 -26 OFFCURVE",
"152 30 OFFCURVE",
"122 76 CURVE",
"221 146 LINE",
"254 94 OFFCURVE",
"298 59 OFFCURVE",
"355 55 CURVE SMOOTH",
"393 52 OFFCURVE",
"410 94 OFFCURVE",
"410 166 CURVE SMOOTH",
"410 240 OFFCURVE",
"336 269 OFFCURVE",
"286 297 CURVE SMOOTH",
"224 332 OFFCURVE",
"140 360 OFFCURVE",
"138 492 CURVE SMOOTH",
"136 654 OFFCURVE",
"313 724 OFFCURVE",
"368 724 CURVE SMOOTH",
"423 724 OFFCURVE",
"476 669 OFFCURVE",
"500 634 CURVE",
"408 571 LINE",
"384 604 OFFCURVE",
"348 641 OFFCURVE",
"286 644 CURVE SMOOTH",
"260 645 OFFCURVE",
"218 631 OFFCURVE",
"216 559 CURVE SMOOTH",
"214 487 OFFCURVE",
"298 430 OFFCURVE",
"349 407 CURVE SMOOTH",
"400 384 OFFCURVE",
"491 384 OFFCURVE",
"498 222 CURVE SMOOTH",
"505 60 OFFCURVE",
"341 -26 OFFCURVE",
"263 -26 CURVE SMOOTH"
);
}
);
width = 600;
},
{
layerId = "4B9CF309-7C6C-4E8F-98F9-807C6FC76924";
width = 600;
}
);
unicode = 0053;
},
{
glyphname = T;
lastChange = "2018-06-13 02:44:35 +0000";
layers = (
{
layerId = "943837FD-2EA4-424D-A655-FFF98A08080F";
paths = (
{
closed = 1;
nodes = (
"240 0 LINE",
"240 700 LINE",
"368 700 LINE",
"368 0 LINE"
);
},
{
closed = 1;
nodes = (
"563 700 LINE",
"513 636 LINE",
"55 636 LINE",
"98 700 LINE"
);
}
);
width = 600;
},
{
layerId = "4B9CF309-7C6C-4E8F-98F9-807C6FC76924";
width = 600;
}
);
unicode = 0054;
},
{
glyphname = a;
lastChange = "2018-06-10 03:08:27 +0000";
layers = (
{
layerId = "943837FD-2EA4-424D-A655-FFF98A08080F";
paths = (
{
closed = 1;
nodes = (
"518 0 LINE",
"518 350 LINE SMOOTH",
"518 481 OFFCURVE",
"392 508 OFFCURVE",
"302 508 CURVE SMOOTH",
"277 508 OFFCURVE",
"196 458 OFFCURVE",
"138 406 CURVE",
"162 384 LINE",
"204 421 OFFCURVE",
"246 436 OFFCURVE",
"289 436 CURVE SMOOTH",
"382 436 OFFCURVE",
"411 388 OFFCURVE",
"411 330 CURVE SMOOTH",
"411 -20 LINE"
);
},
{
closed = 1;
nodes = (
"425 99 LINE",
"390 76 OFFCURVE",
"365 70 OFFCURVE",
"337 70 CURVE SMOOTH",
"274 70 OFFCURVE",
"221 138 OFFCURVE",
"221 190 CURVE SMOOTH",
"221 229 OFFCURVE",
"247 250 OFFCURVE",
"294 250 CURVE SMOOTH",
"341 250 OFFCURVE",
"395 241 OFFCURVE",
"430 223 CURVE",
"433 290 LINE",
"298 290 LINE SMOOTH",
"202 290 OFFCURVE",
"121 207 OFFCURVE",
"120 126 CURVE SMOOTH",
"119 85 OFFCURVE",
"172 -20 OFFCURVE",
"253 -21 CURVE SMOOTH",
"294 -22 OFFCURVE",
"373 26 OFFCURVE",
"425 63 CURVE"
);
}
);
width = 600;
},
{
layerId = "4B9CF309-7C6C-4E8F-98F9-807C6FC76924";
width = 600;
}
);
unicode = 0061;
},
{
glyphname = b;
lastChange = "2018-06-08 19:58:58 +0000";
layers = (
{
layerId = "943837FD-2EA4-424D-A655-FFF98A08080F";
paths = (
{
closed = 1;
nodes = (
"348.565 106.077 OFFCURVE",
"412.69 182.96 OFFCURVE",
"413.887 270.151 CURVE SMOOTH",
"416 424 OFFCURVE",
"360.555 510 OFFCURVE",
"273 510 CURVE",
"158 453.817 LINE",
"158 720 LINE",
"30 700 LINE",
"30 60 LINE",
"64 36 OFFCURVE",
"143 9 OFFCURVE",
"220 7 CURVE",
"329 91 LINE SMOOTH"
);
},
{
closed = 1;
nodes = (
"158 409.771 LINE",
"212 436 LINE",
"253.209 436 OFFCURVE",
"296.76 360.517 OFFCURVE",
"297.1 294.575 CURVE SMOOTH",
"297.696 178.933 OFFCURVE",
"279 126 OFFCURVE",
"243 60 CURVE",
"220 60 OFFCURVE",
"183 69 OFFCURVE",
"158 90 CURVE"
);
}
);
width = 444;
},
{
layerId = "4B9CF309-7C6C-4E8F-98F9-807C6FC76924";
width = 600;
}
);
unicode = 0062;
},
{
glyphname = c;
lastChange = "2018-06-11 22:53:16 +0000";
layers = (
{
layerId = "943837FD-2EA4-424D-A655-FFF98A08080F";
paths = (
{
closed = 1;
nodes = (
"415 -10 OFFCURVE",
"470 24 OFFCURVE",
"518 64 CURVE",
"498 90 LINE",
"466 67 OFFCURVE",
"439 59 OFFCURVE",
"398 59 CURVE SMOOTH",
"347 59 OFFCURVE",
"224 101 OFFCURVE",
"223 281 CURVE SMOOTH",
"222 401 OFFCURVE",
"264 446 OFFCURVE",
"296 446 CURVE SMOOTH",
"335 446 OFFCURVE",
"385 410 OFFCURVE",
"409 352 CURVE",
"505 400 LINE",
"505 451 OFFCURVE",
"428 516 OFFCURVE",
"363 516 CURVE SMOOTH",
"310 516 OFFCURVE",
"111 421 OFFCURVE",
"112 215 CURVE SMOOTH",
"113 59 OFFCURVE",
"235 -10 OFFCURVE",
"340 -10 CURVE SMOOTH"
);
}
);
width = 600;
},
{
layerId = "4B9CF309-7C6C-4E8F-98F9-807C6FC76924";
width = 600;
}
);
unicode = 0063;
},
{
glyphname = d;
lastChange = "2018-06-11 23:29:23 +0000";
layers = (
{
layerId = "943837FD-2EA4-424D-A655-FFF98A08080F";
paths = (
{
closed = 1;
nodes = (
"494 0 LINE",
"494 720 LINE",
"380 700 LINE",
"380 0 LINE"
);
},
{
closed = 1;
nodes = (
"400 123 LINE",
"305 58 LINE",
"201 56 OFFCURVE",
"167 173 OFFCURVE",
"167 246 CURVE SMOOTH",
"167 342 OFFCURVE",
"178 457 OFFCURVE",
"252 457 CURVE SMOOTH",
"311 457 OFFCURVE",
"357 446 OFFCURVE",
"400 420 CURVE",
"400 503 LINE",
"379 509 OFFCURVE",
"345 517 OFFCURVE",
"302 517 CURVE SMOOTH",
"158 517 OFFCURVE",
"53 370 OFFCURVE",
"52 187 CURVE SMOOTH",
"51 23 OFFCURVE",
"168 -24 OFFCURVE",
"274 -22 CURVE",
"400 70 LINE"
);
}
);
width = 600;
},
{
layerId = "4B9CF309-7C6C-4E8F-98F9-807C6FC76924";
width = 600;
}
);
unicode = 0064;
},
{
glyphname = e;
lastChange = "2018-06-12 00:42:56 +0000";
layers = (
{
layerId = "943837FD-2EA4-424D-A655-FFF98A08080F";
paths = (
{
closed = 1;
nodes = (
"427 92 LINE",
"380 65 OFFCURVE",
"334 64 OFFCURVE",
"305 63 CURVE SMOOTH",
"216 61 OFFCURVE",
"143.326 180.933 OFFCURVE",
"143.003 270 CURVE SMOOTH",
"143 402 OFFCURVE",
"182 460 OFFCURVE",
"215 460 CURVE SMOOTH",
"287 460 OFFCURVE",
"329 375 OFFCURVE",
"329 303 CURVE",
"116 303 LINE",
"116 250 LINE",
"357 250 LINE",
"427 308 LINE",
"426 380 OFFCURVE",
"415 520 OFFCURVE",
"276.003 520 CURVE SMOOTH",
"153 520 OFFCURVE",
"40 434 OFFCURVE",
"40 217 CURVE SMOOTH",
"40 57 OFFCURVE",
"146 -12 OFFCURVE",
"295 -11 CURVE",
"438 66 LINE"
);
}
);
width = 468.00312;
},
{
layerId = "4B9CF309-7C6C-4E8F-98F9-807C6FC76924";
width = 600;
}
);
unicode = 0065;
},
{
glyphname = f;
lastChange = "2018-06-10 03:37:14 +0000";
layers = (
{
layerId = "943837FD-2EA4-424D-A655-FFF98A08080F";
paths = (
{
closed = 1;
nodes = (
"240 0 LINE",
"240 566 LINE SMOOTH",
"240 622 OFFCURVE",
"366 750 OFFCURVE",
"417 750 CURVE SMOOTH",
"473 750 LINE",
"434 684 LINE",
"373 684 LINE SMOOTH",
"353 684 OFFCURVE",
"341 669 OFFCURVE",
"341 646 CURVE SMOOTH",
"349 0 LINE"
);
},
{
closed = 1;
nodes = (
"451 500 LINE",
"422 450 LINE",
"170 450 LINE",
"203 500 LINE"
);
}
);
width = 600;
},
{
layerId = "4B9CF309-7C6C-4E8F-98F9-807C6FC76924";
width = 600;
}
);
unicode = 0066;
},
{
glyphname = g;
lastChange = "2018-06-12 03:35:01 +0000";
layers = (
{
layerId = "943837FD-2EA4-424D-A655-FFF98A08080F";
paths = (
{
closed = 1;
nodes = (
"93 48 LINE",
"93 -2 OFFCURVE",
"197 -18 OFFCURVE",
"287 -17 CURVE SMOOTH",
"397 -16 OFFCURVE",
"416 -58 OFFCURVE",
"420 -102 CURVE SMOOTH",
"424 -146 OFFCURVE",
"397 -174 OFFCURVE",
"310 -176 CURVE SMOOTH",
"223 -178 OFFCURVE",
"177 -121 OFFCURVE",
"176 -90 CURVE SMOOTH",
"175 -68 OFFCURVE",
"194 -36 OFFCURVE",
"235 -3 CURVE",
"204 7 LINE",
"82 -129 LINE",
"83 -179 OFFCURVE",
"105 -250 OFFCURVE",
"251 -249 CURVE SMOOTH",
"397 -248 OFFCURVE",
"514 -161 OFFCURVE",
"506 -44 CURVE SMOOTH",
"498 73 OFFCURVE",
"326 69 OFFCURVE",
"288 67 CURVE SMOOTH",
"205 62 OFFCURVE",
"174 71 OFFCURVE",
"174 94 CURVE SMOOTH",
"174 114 OFFCURVE",
"190 135 OFFCURVE",
"201 153 CURVE",
"183 172 LINE"
);
},
{
closed = 1;
nodes = (
"223 510 OFFCURVE",
"86 404 OFFCURVE",
"89 288 CURVE SMOOTH",
"92 172 OFFCURVE",
"184 122 OFFCURVE",
"258 123 CURVE SMOOTH",
"352 124 OFFCURVE",
"503 210 OFFCURVE",
"503 342 CURVE SMOOTH",
"503 379 OFFCURVE",
"494 434 OFFCURVE",
"416 477 CURVE",
"416 449 LINE",
"509 478 LINE",
"509 510 LINE",
"323 510 LINE"
);
},
{
closed = 1;
nodes = (
"322 446 OFFCURVE",
"406 382 OFFCURVE",
"408 302 CURVE SMOOTH",
"410 212 OFFCURVE",
"361 189 OFFCURVE",
"319 188 CURVE SMOOTH",
"277 187 OFFCURVE",
"189 233 OFFCURVE",
"188 331 CURVE SMOOTH",
"187 409 OFFCURVE",
"221 446 OFFCURVE",
"271 446 CURVE SMOOTH"
);
}
);
width = 600;
},
{
layerId = "4B9CF309-7C6C-4E8F-98F9-807C6FC76924";
width = 600;
}
);
unicode = 0067;
},
{
glyphname = h;
lastChange = "2018-06-11 06:40:22 +0000";
layers = (
{
layerId = "943837FD-2EA4-424D-A655-FFF98A08080F";
paths = (
{
closed = 1;
nodes = (
"132 720 LINE",
"30 700 LINE",
"30 0 LINE",
"132 0 LINE"
);
},
{
closed = 1;
nodes = (
"111 384 LINE",
"212 434 LINE",
"258 434 OFFCURVE",
"325 414 OFFCURVE",
"325 330 CURVE SMOOTH",
"325 0 LINE",
"426 0 LINE",
"426 290 LINE SMOOTH",
"426 454 OFFCURVE",
"375 512 OFFCURVE",
"285 512 CURVE",
"111 428 LINE"
);
}
);
width = 444;
},
{
layerId = "4B9CF309-7C6C-4E8F-98F9-807C6FC76924";
width = 600;
}
);
unicode = 0068;
},
{
glyphname = i;
lastChange = "2018-06-09 04:15:00 +0000";
layers = (
{
layerId = "943837FD-2EA4-424D-A655-FFF98A08080F";
paths = (
{
closed = 1;
nodes = (
"158 0 LINE",
"158 520 LINE",
"30 500 LINE",
"30 0 LINE"
);
},
{
closed = 1;
nodes = (
"158 620 LINE",
"158 720 LINE",
"30 700 LINE",
"30 600 LINE"
);
}
);
width = 188;
},
{
layerId = "4B9CF309-7C6C-4E8F-98F9-807C6FC76924";
paths = (
{
closed = 1;
nodes = (
"318 0 LINE",
"318 520 LINE",
"30 500 LINE",
"30 0 LINE"
);
},
{
closed = 1;
nodes = (
"318 620 LINE",
"318 720 LINE",
"30 700 LINE",
"30 600 LINE"
);
}
);
width = 348;
}
);
unicode = 0069;
},
{
glyphname = j;
lastChange = "2018-06-11 06:35:28 +0000";
layers = (
{
layerId = "943837FD-2EA4-424D-A655-FFF98A08080F";
paths = (
{
closed = 1;
nodes = (
"139 -250 LINE",
"139 520 LINE",
"30 500 LINE",
"30 -270 LINE"
);
},
{
closed = 1;
nodes = (
"151 670 LINE",
"81 741 LINE",
"18 650 LINE",
"88 579 LINE"
);
}
);
width = 188;
},
{
layerId = "4B9CF309-7C6C-4E8F-98F9-807C6FC76924";
width = 600;
}
);
unicode = 006A;
},
{
glyphname = k;
lastChange = "2018-06-11 13:52:44 +0000";
layers = (
{
layerId = "943837FD-2EA4-424D-A655-FFF98A08080F";
paths = (
{
closed = 1;
nodes = (
"218 0 LINE",
"224 720 LINE",
"115 700 LINE",
"115 0 LINE"
);
},
{
closed = 1;
nodes = (
"211 262 LINE",
"211 239 LINE",
"433 -19 LINE",
"540 39 LINE",
"318 291 LINE",
"522 501 LINE",
"434 501 LINE"
);
}
);
width = 600;
},
{
layerId = "4B9CF309-7C6C-4E8F-98F9-807C6FC76924";
width = 554;
}
);
unicode = 006B;
},
{
glyphname = l;
lastChange = "2018-06-11 13:01:43 +0000";
layers = (
{
layerId = "943837FD-2EA4-424D-A655-FFF98A08080F";
paths = (
{
closed = 1;
nodes = (
"144 0 LINE",
"144 720 LINE",
"30 700 LINE",
"30 0 LINE"
);
}
);
width = 188;
},
{
layerId = "4B9CF309-7C6C-4E8F-98F9-807C6FC76924";
paths = (
{
closed = 1;
nodes = (
"244 0 LINE",
"244 720 LINE",
"30 700 LINE",
"30 0 LINE"
);
}
);
width = 268;
}
);
unicode = 006C;
},
{
glyphname = m;
lastChange = "2018-06-11 06:12:33 +0000";
layers = (
{
layerId = "943837FD-2EA4-424D-A655-FFF98A08080F";
paths = (
{
closed = 1;
nodes = (
"142 520 LINE",
"40 500 LINE",
"40 0 LINE",
"142 0 LINE"
);
},
{
closed = 1;
nodes = (
"121 384 LINE",
"195 430 LINE",
"241 430 OFFCURVE",
"309 414 OFFCURVE",
"309 330 CURVE SMOOTH",
"309 0 LINE",
"410 0 LINE",
"410 290 LINE SMOOTH",
"410 454 OFFCURVE",
"359 512 OFFCURVE",
"269 512 CURVE",
"121 428 LINE"
);
},
{
closed = 1;
nodes = (
"381 384 LINE",
"455 428 LINE",
"501 428 OFFCURVE",
"569 414 OFFCURVE",
"569 330 CURVE SMOOTH",
"569 0 LINE",
"670 0 LINE",
"670 290 LINE SMOOTH",
"670 454 OFFCURVE",
"619 512 OFFCURVE",
"529 512 CURVE",
"381 428 LINE"
);
}
);
width = 704;
},
{
layerId = "4B9CF309-7C6C-4E8F-98F9-807C6FC76924";
width = 600;
}
);
unicode = 006D;
},
{
glyphname = n;
lastChange = "2018-06-11 13:52:28 +0000";
layers = (
{
layerId = "943837FD-2EA4-424D-A655-FFF98A08080F";
paths = (
{
closed = 1;
nodes = (
"132 720 LINE",
"30 700 LINE",
"30 0 LINE",
"132 0 LINE"
);
},
{
closed = 1;
nodes = (
"111 384 LINE",
"212 434 LINE",
"258 434 OFFCURVE",
"325 414 OFFCURVE",
"325 330 CURVE SMOOTH",
"325 0 LINE",
"426 0 LINE",
"426 290 LINE SMOOTH",
"426 454 OFFCURVE",
"375 512 OFFCURVE",
"285 512 CURVE",
"111 428 LINE"
);
}
);
width = 444;
},
{
layerId = "4B9CF309-7C6C-4E8F-98F9-807C6FC76924";
paths = (
{
closed = 1;
nodes = (
"232 520 LINE",
"30 500 LINE",
"30 0 LINE",
"232 0 LINE"
);
},
{
closed = 1;
nodes = (
"211 384 LINE",
"284 420 LINE",
"309 420 OFFCURVE",
"325 412 OFFCURVE",
"325 330 CURVE SMOOTH",
"325 0 LINE",
"526 0 LINE",
"526 290 LINE SMOOTH",
"526 454 OFFCURVE",
"475 512 OFFCURVE",
"385 512 CURVE",
"211 428 LINE"
);
}
);
width = 556;
}
);
unicode = 006E;
},
{
glyphname = o;
lastChange = "2018-06-11 05:54:00 +0000";
layers = (
{
layerId = "943837FD-2EA4-424D-A655-FFF98A08080F";
paths = (
{
closed = 1;
nodes = (
"37 407 OFFCURVE",
"-32 323 OFFCURVE",
"-32 191 CURVE SMOOTH",
"-32 41 OFFCURVE",
"98 -10 OFFCURVE",
"238 -10 CURVE",
"306 43 LINE SMOOTH",
"360 85 OFFCURVE",
"417 149 OFFCURVE",
"418 261 CURVE SMOOTH",
"420 441 OFFCURVE",
"301 510 OFFCURVE",
"173 510 CURVE",
"94 450 LINE SMOOTH"
);
},
{
closed = 1;
nodes = (
"67 391 OFFCURVE",
"108 441 OFFCURVE",
"173 441 CURVE SMOOTH",
"224 441 OFFCURVE",
"327 391 OFFCURVE",
"327 232 CURVE SMOOTH",
"327 129 OFFCURVE",
"316 71 OFFCURVE",
"223 71 CURVE SMOOTH",
"145 71 OFFCURVE",
"67 143 OFFCURVE",
"67 285 CURVE SMOOTH"
);
}
);
width = 468.00312;
},
{
layerId = "4B9CF309-7C6C-4E8F-98F9-807C6FC76924";
width = 600;
}
);
unicode = 006F;
},
{
glyphname = p;
lastChange = "2018-06-11 04:38:32 +0000";
layers = (
{
layerId = "943837FD-2EA4-424D-A655-FFF98A08080F";
paths = (
{
closed = 1;
nodes = (
"240 504 LINE",
"237 -235 LINE",
"131 -248 LINE",
"129 470 LINE"
);
},
{
closed = 1;
nodes = (
"348 516 LINE",
"452 516 OFFCURVE",
"557 478 OFFCURVE",
"553 290 CURVE SMOOTH",
"549 102 OFFCURVE",
"418 -22 OFFCURVE",
"321 -18 CURVE SMOOTH",
"274 -16 OFFCURVE",
"215 16 OFFCURVE",
"191 34 CURVE SMOOTH",
"167 52 OFFCURVE",
"206 99 OFFCURVE",
"205 105 CURVE SMOOTH",
"204 111 OFFCURVE",
"309 45 OFFCURVE",
"365 48 CURVE SMOOTH",
"421 51 OFFCURVE",
"442 185 OFFCURVE",
"440 243 CURVE SMOOTH",
"438 301 OFFCURVE",
"410 439 OFFCURVE",
"317 441 CURVE SMOOTH",
"224 443 OFFCURVE",
"240 356 OFFCURVE",
"239 321 CURVE",
"197 423 LINE",
"232 433 LINE"
);
}
);
width = 600;
},
{
layerId = "4B9CF309-7C6C-4E8F-98F9-807C6FC76924";
width = 600;
}
);
unicode = 0070;
},
{
glyphname = q;
lastChange = "2018-06-11 04:23:56 +0000";
layers = (
{
layerId = "943837FD-2EA4-424D-A655-FFF98A08080F";
paths = (
{
closed = 1;
nodes = (
"466 -249 LINE",
"466 491 LINE",
"357 456 LINE",
"357 -270 LINE"
);
},
{
closed = 1;
nodes = (
"466 491 LINE",
"421 500 OFFCURVE",
"323 511 OFFCURVE",
"288 511 CURVE SMOOTH",
"154 511 OFFCURVE",
"35 404 OFFCURVE",
"37 205 CURVE SMOOTH",
"38 73 OFFCURVE",
"94 -19 OFFCURVE",
"233 -18 CURVE",
"379 65 LINE",
"357 112 LINE",
"339 86 OFFCURVE",
"316 71 OFFCURVE",
"293 71 CURVE SMOOTH",
"222 71 OFFCURVE",
"137 132 OFFCURVE",
"137 248 CURVE SMOOTH",
"137 319 OFFCURVE",
"165 451 OFFCURVE",
"219 451 CURVE SMOOTH",
"275 451 OFFCURVE",
"322 435 OFFCURVE",
"357 412 CURVE"
);
}
);
width = 600;
},
{
layerId = "4B9CF309-7C6C-4E8F-98F9-807C6FC76924";
width = 600;
}
);
unicode = 0071;
},
{
glyphname = r;
lastChange = "2018-06-11 04:08:46 +0000";
layers = (
{
layerId = "943837FD-2EA4-424D-A655-FFF98A08080F";
paths = (
{
closed = 1;
nodes = (
"298 0 LINE",
"298 520 LINE",
"187 500 LINE",
"187 0 LINE"
);
},
{
closed = 1;
nodes = (
"298 389 OFFCURVE",
"320 421 OFFCURVE",
"341 421 CURVE SMOOTH",
"365 421 OFFCURVE",
"386 384 OFFCURVE",
"396 361 CURVE",
"486 435 LINE",
"486 463 OFFCURVE",
"466 511 OFFCURVE",
"406 511 CURVE SMOOTH",
"370 511 OFFCURVE",
"322 490 OFFCURVE",
"298 441 CURVE",
"265 441 LINE",
"298 317 LINE"
);
}
);
width = 600;
},
{
layerId = "4B9CF309-7C6C-4E8F-98F9-807C6FC76924";
width = 600;
}
);
unicode = 0072;
},
{
glyphname = s;
lastChange = "2018-06-10 05:28:34 +0000";
layers = (
{
layerId = "943837FD-2EA4-424D-A655-FFF98A08080F";
paths = (
{
closed = 1;
nodes = (
"210 -16 OFFCURVE",
"134 39 OFFCURVE",
"136 96 CURVE",
"225 144 LINE",
"243 97 OFFCURVE",
"281 49 OFFCURVE",
"315 49 CURVE SMOOTH",
"341 49 OFFCURVE",
"359 67 OFFCURVE",
"360 110 CURVE SMOOTH",
"362 181 OFFCURVE",
"136 247 OFFCURVE",
"136 350 CURVE SMOOTH",
"136 411 OFFCURVE",
"265 518 OFFCURVE",
"318 518 CURVE SMOOTH",
"381 518 OFFCURVE",
"440 443 OFFCURVE",
"443 407 CURVE",
"362 362 LINE",
"349 411 OFFCURVE",
"291 447 OFFCURVE",
"265 447 CURVE SMOOTH",
"239 447 OFFCURVE",
"214 416 OFFCURVE",
"215 396 CURVE",
"210 325 OFFCURVE",
"441 269 OFFCURVE",
"441 161 CURVE SMOOTH",
"441 57 OFFCURVE",
"340 -16 OFFCURVE",
"274 -16 CURVE SMOOTH"
);
}
);
width = 600;
},
{
layerId = "4B9CF309-7C6C-4E8F-98F9-807C6FC76924";
width = 600;
}
);
unicode = 0073;
},
{
glyphname = t;
lastChange = "2018-06-10 05:14:10 +0000";
layers = (
{
layerId = "943837FD-2EA4-424D-A655-FFF98A08080F";
paths = (
{
closed = 1;
nodes = (
"445 62 LINE",
"406 21 OFFCURVE",
"340 -20 OFFCURVE",
"273 -19 CURVE SMOOTH",
"209 -18 OFFCURVE",
"195 29 OFFCURVE",
"195 108 CURVE SMOOTH",
"197 582 LINE",
"294 622 LINE",
"294 145 LINE SMOOTH",
"294 86 OFFCURVE",
"318 61 OFFCURVE",
"353 61 CURVE SMOOTH",
"371 61 OFFCURVE",
"402 69 OFFCURVE",
"429 82 CURVE"
);
},
{
closed = 1;
nodes = (
"411 500 LINE",
"382 450 LINE",
"130 450 LINE",
"163 500 LINE"
);
}
);
width = 600;
},
{
layerId = "4B9CF309-7C6C-4E8F-98F9-807C6FC76924";
width = 600;
}
);
unicode = 0074;
},
{
glyphname = u;
lastChange = "2018-06-11 06:24:32 +0000";
layers = (
{
layerId = "943837FD-2EA4-424D-A655-FFF98A08080F";
paths = (
{
closed = 1;
nodes = (
"374 0 LINE",
"476 0 LINE",
"476 520 LINE",
"374 500 LINE"
);
},
{
closed = 1;
nodes = (
"395 116 LINE",
"294 63 LINE",
"248 63 OFFCURVE",
"181 86 OFFCURVE",
"181 170 CURVE SMOOTH",
"181 520 LINE",
"80 500 LINE",
"80 210 LINE SMOOTH",
"80 46 OFFCURVE",
"131 -12 OFFCURVE",
"221 -12 CURVE",
"395 72 LINE"
);
}
);
width = 600;
},
{
layerId = "4B9CF309-7C6C-4E8F-98F9-807C6FC76924";
width = 600;
}
);
unicode = 0075;
},
{
glyphname = v;
lastChange = "2018-06-10 05:09:20 +0000";
layers = (
{
layerId = "943837FD-2EA4-424D-A655-FFF98A08080F";
paths = (
{
closed = 1;
nodes = (
"185 528 LINE",
"338 78 LINE",
"316 78 LINE",
"455 500 LINE",
"530 500 LINE",
"345 0 LINE",
"261 -18 LINE",
"78 500 LINE"
);
}
);
width = 600;
},
{
layerId = "4B9CF309-7C6C-4E8F-98F9-807C6FC76924";
width = 600;
}
);
unicode = 0076;
},
{
glyphname = w;
lastChange = "2018-06-10 05:07:25 +0000";
layers = (
{
layerId = "943837FD-2EA4-424D-A655-FFF98A08080F";
paths = (
{
closed = 1;
nodes = (
"335 528 LINE",
"444 73 LINE",
"422 73 LINE",
"535 500 LINE",
"613 509 LINE",
"456 0 LINE",
"361 -18 LINE",
"228 500 LINE"
);
},
{
closed = 1;
nodes = (
"55 528 LINE",
"164 73 LINE",
"142 73 LINE",
"255 485 LINE",
"305 451 LINE",
"176 0 LINE",
"81 -18 LINE",
"-52 500 LINE"
);
}
);
width = 600;
},
{
layerId = "4B9CF309-7C6C-4E8F-98F9-807C6FC76924";
width = 600;
}
);
unicode = 0077;
},
{
glyphname = x;
lastChange = "2018-06-10 04:29:13 +0000";
layers = (
{
layerId = "943837FD-2EA4-424D-A655-FFF98A08080F";
paths = (
{
closed = 1;
nodes = (
"87 2 LINE",
"456 504 LINE",
"535 503 LINE",
"162 -3 LINE"
);
},
{
closed = 1;
nodes = (
"523 2 LINE",
"403 -18 LINE",
"79 479 LINE",
"184 521 LINE"
);
}
);
width = 600;
},
{
layerId = "4B9CF309-7C6C-4E8F-98F9-807C6FC76924";
width = 600;
}
);
unicode = 0078;
},
{
glyphname = y;
lastChange = "2018-06-10 04:27:37 +0000";
layers = (
{
layerId = "943837FD-2EA4-424D-A655-FFF98A08080F";
paths = (
{
closed = 1;
nodes = (
"539 501 LINE",
"464 500 LINE",
"320 108 LINE",
"351 111 LINE",
"183 522 LINE",
"76 487 LINE",
"280 -2 LINE",
"184 -220 LINE",
"242 -247 LINE"
);
}
);
width = 600;
},
{
layerId = "4B9CF309-7C6C-4E8F-98F9-807C6FC76924";
width = 600;
}
);
unicode = 0079;
},
{
glyphname = z;
lastChange = "2018-06-10 03:39:30 +0000";
layers = (
{
layerId = "943837FD-2EA4-424D-A655-FFF98A08080F";
paths = (
{
closed = 1;
nodes = (
"187 500 LINE",
"491 500 LINE",
"504 476 LINE",
"225 60 LINE",
"226 83 LINE",
"520 83 LINE",
"504 1 LINE",
"144 1 LINE",
"138 38 LINE",
"410 455 LINE",
"408 418 LINE",
"154 420 LINE"
);
}
);
width = 600;
},
{
layerId = "4B9CF309-7C6C-4E8F-98F9-807C6FC76924";
width = 600;
}
);
unicode = 007A;
},
